<?xml version="1.0" standalone="no"?>
<!DOCTYPE svg PUBLIC "-//W3C//DTD SVG 20010904//EN"
 "http://www.w3.org/TR/2001/REC-SVG-20010904/DTD/svg10.dtd">
<svg version="1.0" xmlns="http://www.w3.org/2000/svg"
 width="545.000000pt" height="545.000000pt" viewBox="0 0 545.000000 545.000000"
 preserveAspectRatio="xMidYMid meet">
<metadata>
Created by potrace 1.14, written by Peter Selinger 2001-2017
</metadata>
<g transform="translate(0.000000,545.000000) scale(0.100000,-0.100000)"
fill="#000000" stroke="none">
<path d="M1588 4112 c-25 -3 -28 -7 -29 -45 -1 -23 -2 -55 -4 -72 -1 -16 1
-34 4 -40 4 -5 7 -357 7 -782 -1 -679 1 -772 14 -775 8 -2 592 -4 1297 -3
l1282 0 -24 -40 -23 -40 -1288 -5 -1289 -5 -281 -440 c-155 -242 -288 -447
-297 -455 -8 -8 -31 -48 -51 -87 l-36 -73 1375 0 1375 0 57 88 c31 48 70 110
88 137 18 28 80 124 137 215 58 91 131 206 163 255 32 50 72 113 90 140 17 28
68 107 112 176 l81 126 -2 859 -1 859 -845 2 c-465 2 -1079 4 -1365 5 -286 2
-532 2 -547 0z"/>
</g>
</svg>
